<svg width="840" height="1080" viewBox="0 0 840 1080" fill="none" xmlns="http://www.w3.org/2000/svg">
<rect x="0.00012207" width="840" height="1080" fill="#2E2F38"/>
<path opacity="0.05" d="M610 350.032L610 271.696L622.672 271.696L632.176 295.312L683.152 274.864L683.152 199.984L632.176 179.536L622.672 202.576L610 202.576L610 127.12L622.672 127.12L632.176 150.736L813.328 221.584L813.328 251.248L632.176 324.976L622.672 350.032L610 350.032ZM702.736 267.376L783.664 236.848L702.736 207.472L702.736 267.376ZM610 432.146L610 356.402L622.384 356.402L631.888 380.594L734.704 380.594L734.704 356.402L751.984 356.402C755.632 363.89 757.456 372.338 757.456 381.746C757.456 391.154 755.44 397.682 751.408 401.33C747.376 404.978 741.424 406.994 733.552 407.378C739.312 409.298 744.496 413.234 749.104 419.186C754.672 426.29 757.456 435.698 757.456 447.41C757.456 452.594 756.784 457.49 755.44 462.098C754.096 466.898 752.752 470.354 751.408 472.466L749.392 475.922L715.408 475.922L715.408 458.642L732.688 454.898C733.84 453.746 734.416 450.578 734.416 445.394C734.416 440.21 733.648 435.218 732.112 430.418C730.768 425.618 729.04 421.874 726.928 419.186C722.32 413.81 717.616 409.97 712.816 407.666L631.888 407.666L622.384 432.146L610 432.146ZM673.072 535.7C656.56 535.7 645.328 538.196 639.376 543.188C633.424 548.18 630.448 555.764 630.448 565.94C630.448 576.116 631.984 584.468 635.056 590.996L620.656 596.756C619.696 595.988 618.448 594.836 616.912 593.3C615.376 591.956 613.264 588.404 610.576 582.644C608.08 576.884 606.832 570.548 606.832 563.636C606.832 546.164 611.728 532.628 621.52 523.028C631.504 513.428 646 508.628 665.008 508.628L731.248 508.628L731.248 493.364L748.24 493.364L775.888 521.012L775.888 535.7L754 535.7L754 584.084L731.248 584.084L731.248 535.7L673.072 535.7ZM610 735.342L610 612.942L629.584 612.942L730.672 701.07L730.672 637.422L713.968 631.95L713.968 615.534L753.424 615.534L753.424 731.31L730.672 731.31L633.616 647.502L633.616 714.894L650.896 720.366L650.896 735.342L610 735.342ZM610 837.159L610 761.415L622.384 761.415L631.888 785.607L734.704 785.607L734.704 761.415L751.984 761.415C755.632 768.903 757.456 777.543 757.456 787.335C757.456 797.319 755.056 804.039 750.256 807.495C745.648 810.951 738.544 812.679 728.944 812.679L631.888 812.679L622.384 837.159L610 837.159ZM790.576 813.831C786.16 809.415 783.952 804.039 783.952 797.703C783.952 791.367 786.16 785.991 790.576 781.575C794.992 777.159 800.368 774.951 806.704 774.951C813.04 774.951 818.416 777.159 822.832 781.575C827.248 785.991 829.456 791.367 829.456 797.703C829.456 804.039 827.248 809.415 822.832 813.831C818.416 818.247 813.04 820.455 806.704 820.455C800.368 820.455 794.992 818.247 790.576 813.831ZM607.12 931.344C607.12 909.648 613.264 891.984 625.552 878.352C638.032 864.912 656.176 858.192 679.984 858.192C703.792 858.192 722.608 865.104 736.432 878.928C750.448 892.752 757.456 908.88 757.456 927.312C757.456 971.088 731.536 992.976 679.696 992.976L679.696 886.128L678.256 886.128C664.624 886.128 653.104 890.928 643.696 900.528C634.288 910.128 629.584 923.184 629.584 939.696C629.584 946.8 630.352 953.52 631.888 959.856C633.616 966.192 635.344 970.8 637.072 973.68L639.376 977.712L624.4 986.064C624.016 985.488 623.344 984.624 622.384 983.472C621.616 982.512 620.272 980.304 618.352 976.848C616.432 973.392 614.704 969.648 613.168 965.616C609.136 955.44 607.12 944.016 607.12 931.344ZM698.128 966.192C710.032 965.232 719.056 961.296 725.2 954.384C731.536 947.664 734.704 938.832 734.704 927.888C734.704 917.136 731.632 908.208 725.488 901.104C719.536 894 710.416 889.392 698.128 887.28L698.128 966.192ZM611.728 1053.94C608.464 1050.68 606.832 1046.65 606.832 1041.85C606.832 1037.05 608.464 1033.01 611.728 1029.75C614.992 1026.49 619.024 1024.85 623.824 1024.85C628.624 1024.85 632.656 1026.49 635.92 1029.75C639.184 1033.01 640.816 1037.05 640.816 1041.85C640.816 1046.65 639.184 1050.68 635.92 1053.94C632.656 1057.21 628.624 1058.84 623.824 1058.84C619.024 1058.84 614.992 1057.21 611.728 1053.94Z" fill="white"/>
</svg>
